<svg version="1.0" xmlns="http://www.w3.org/2000/svg" width="1706.67" height="1706.67" viewBox="0 0 1280 1280" style="background-color: #e5e5e5;">
	<path d="M126.8 3.5C90.5 14.1 63.8 28.1 45.9 46 28.2 63.7 13.8 91.1 3.5 127.2l-3.5 12V274H396.7l13.9-8.6c27.3-16.8 64.8-34.1 95.4-43.9 65.9-21.2 138-26.4 206.5-14.9 56.1 9.3 112.5 30.8 161.1 61.4l9.6 6H1280V139.2l-3.5-12c-12.4-43.2-30.6-74.1-53.8-91.5-16.6-12.4-37.7-23-62-31.1L1147.1 0H642.8L138.5.1l-11.7 3.4zm1001.5 43.8c4.7 2 9.5 6.4 12 11.1l2.2 4.1.3 74.8c.2 74.7.2 74.7-1.9 79.8-2.5 5.8-8.2 11.1-13.8 12.7-2.7.9-24.5 1.2-77.7 1.2-72.2 0-74-.1-78.4-2.1-5.8-2.6-8.7-5.3-11.6-11.1l-2.4-4.7v-73.5c0-71.1.1-73.7 2-78.9 2.3-6.2 5.7-9.8 12-12.6 4.4-2 6.2-2.1 79.3-2.1 60.5 0 75.4.3 78 1.3z" fill="grey" />
	<path d="M619.5 261.1c-69.9 3.5-139.7 27.5-197 67.8-34 23.9-69.7 59.6-93.6 93.6-36.5 51.9-59.4 113.4-66.5 178.2-2.1 19.8-2.1 58.8 0 78.6 5.1 46.5 17 87.3 37.7 129.2 48.8 98.9 140 172.7 246.4 199.4 108 27.1 222.5 5.9 312.2-57.7 33.8-23.9 67.6-57.7 91.5-91.5 70.1-98.8 88.3-227.4 48.6-342.7-19.3-55.8-50.9-105.4-93.9-147.6-59.4-58-134-94.1-216.8-104.9-11.1-1.4-44.8-3.6-51.1-3.3-1.4 0-9.2.4-17.5.9zm62.5 57.4c97.1 13.5 180 66.6 232.3 148.8 24.4 38.5 40.6 83.4 47.4 131.7 2.5 17.7 2.5 64.3 0 82-10.4 73.8-41.4 136.7-92.7 188-51.3 51.4-114 82.2-188.2 92.7-17.3 2.4-64.2 2.5-81.5 0C512.8 949.5 440.7 909 387 842.4c-37.3-46.3-59.9-99.6-68.7-161.7-2.4-17.2-2.4-64.2 0-81.4 11.2-79.1 46.8-147.6 103.7-199.1 53.5-48.5 118.6-76.7 193-83.6 10.4-.9 55.9.3 67 1.9z" fill="grey" />
	<path d="M0 749.6v406.7l3.6 9.1c11.7 29.4 29 56.8 45.1 71.6 17.5 16 45.1 29.9 78.5 39.5l12 3.5h1001.6l12-3.5c24.7-7.1 46.2-16.5 63.2-27.6 26.1-17.2 45.9-46.9 60.1-90.2l3.9-11.8V343H963.8l3.7 4.2c29 34 45.5 58 62.6 91.3 19.5 37.9 32.2 73.5 40.3 113.6 24.9 122.1-2 246-75.3 346.9-25.1 34.7-61.4 71-96.1 96.1-133.7 97.1-308.8 111.6-456.1 37.9-61.4-30.8-117.9-78.7-158-134-73.2-100.8-100.2-224.8-75.4-346.5 14.5-71.4 48-140.5 94.4-194.9 4.2-4.9 8.6-10.1 9.9-11.7l2.3-2.9H0v406.6z" fill="#dbdbdb" />
</svg>