<svg xmlns="http://www.w3.org/2000/svg" viewBox="0 0 512 512"
	style="enable-background:new 0 0 512 512" xml:space="preserve"><path style="fill:#ff9f19" d="M445.21 478.83H66.85A66.22 66.22 0 0 1 9.6 446.42a66.24 66.24 0 0 1-1.66-65.78L198.88 65.39c12.18-20.17 33.55-32.23 57.14-32.23S301 45.23 313.18 65.41l190.5 314.43c11.59 21.7 10.97 46.28-1.21 66.58a66.22 66.22 0 0 1-57.26 32.41z"/><path style="fill:#f28618" d="M445.21 478.83a66.22 66.22 0 0 0 57.25-32.41c12.19-20.3 12.8-44.89 1.22-66.58L313.18 65.41a66.25 66.25 0 0 0-57.15-32.25v445.67h189.19z"/><path style="fill:#486475" d="M256.03 345.3a16.7 16.7 0 0 1-16.7-16.7V161.67a16.7 16.7 0 0 1 33.4 0V328.6a16.7 16.7 0 0 1-16.7 16.7z"/><path style="fill:#3c4d5c" d="M256.03 412.06c-9.2 0-16.7-7.5-16.7-16.7s7.5-16.69 16.7-16.69c9.21 0 16.7 7.5 16.7 16.7s-7.49 16.7-16.7 16.7z"/></svg>