<svg width="171" height="53" fill="currentColor" xmlns="http://www.w3.org/2000/svg">
	<path d="M40.06 14.58c0-2.25-1.2-4.35-3.07-5.44L23 .83a5.92 5.92 0 0 0-6.1.04L3 9.34a6.43 6.43 0 0 0-3 5.52L.11 32.5c0 1.75.71 3.42 1.95 4.58L17.2 51.66a4.33 4.33 0 0 0 6.1-.04l14.96-14.8a6.43 6.43 0 0 0 1.9-4.63l-.1-17.6zm-5.46-3.1a4.8 4.8 0 0 1 2.31 4.11l.04 8.79-3.51 2.1c-.98.58-2.21-.16-2.21-1.33l-.11-15.74 3.47 2.06zM17.69 4.24a4.47 4.47 0 0 1 4.56-.04L29.7 8.6l.03 4.2c0 1.16-1.23 1.94-2.2 1.32l-13.1-7.9 3.26-1.97zm11.07 21.68v1.55h-6.4V18.4h2.1v7.54h4.3zm-13.31-.15c.4.19 1.04.27 1.83.27.45 0 .9-.08 1.42-.2v-2.14h-1.42v-1.43h3.44v4.7a11.76 11.76 0 0 1-4.94.5 6.13 6.13 0 0 1-1.16-.23 3.28 3.28 0 0 1-.97-.46 2 2 0 0 1-.63-.74c-.15-.31-.3-.66-.3-1.1V21.2c0-.47.1-.9.3-1.24.18-.35.4-.66.7-.86.3-.2.64-.39 1.05-.5.42-.12.79-.24 1.16-.28.38-.04.75-.07 1.16-.07 1.24 0 2.43.11 3.56.3v1.64a14.48 14.48 0 0 0-3.56-.39c-1.53 0-2.28.47-2.28 1.36v3.65c0 .47.19.82.64.98zM3.18 15.82c0-1.71.86-3.27 2.24-4.12l7.56-4.59 4.08 2.45c.97.58.97 2.06 0 2.64L3.22 20.5l-.04-4.66zm2.43 18.8a4.7 4.7 0 0 1-2.32-4.07l-.07-8.36 4.26-2.56c.97-.59 2.2.15 2.2 1.32l.12 16.2-4.19-2.52zm16.87 7.27a4.47 4.47 0 0 1-4.56.04l-6.62-3.92-.04-5.21c0-1.17 1.23-1.94 2.2-1.32l13.17 7.93-4.15 2.48zm12.23-7.46-6.66 4.08-3.74-2.21a1.56 1.56 0 0 1 0-2.65l12.64-7.53.04 4.2c0 1.7-.86 3.26-2.28 4.11zm18.62-2.14a16.55 16.55 0 0 1-2.4-.5 6.7 6.7 0 0 1-2.08-.92 4.3 4.3 0 0 1-1.31-1.53 5.19 5.19 0 0 1-.52-2.3v-7.77c0-.96.18-1.8.56-2.53a4.75 4.75 0 0 1 1.53-1.8c.6-.42 1.3-.77 2.13-1.04a9.58 9.58 0 0 1 2.46-.57 22.03 22.03 0 0 1 2.43-.12c2.57 0 5.04.2 7.4.62v3.4c-2.14-.57-4.6-.84-7.36-.84-3.18 0-4.75.96-4.75 2.84v7.5c0 .93.41 1.58 1.27 1.96.86.38 2.13.58 3.85.58.93 0 1.9-.16 2.95-.43V24.5H56.5v-2.95h7.13v9.69a25.52 25.52 0 0 1-7.58 1.23c-1 0-1.9-.04-2.72-.16zm14.15-18.77h13.86v3.18h-9.49V21h8.59v3.18h-8.59v4.79h9.79v3.18H67.47V13.53zm21.59 3.18h-5.6v-3.18H99v3.18h-5.56v15.48h-4.37V16.7zm12.73-3.18h4.37v15.48h8.93v3.18h-13.3V13.53zm16.54 0h13.86v3.18h-9.49V21h8.6v3.18h-8.6v4.79h9.79v3.18h-14.16V13.53zm17.37 0h4.44l8.82 12.72V13.53h3.88v18.66h-4.44l-8.82-12.95v12.95h-3.88V13.53zm20.76 18.43v-3.41c3.18.5 5.34.76 6.5.76 2.43 0 3.66-.65 3.66-1.91v-1.23c0-.61-.19-1.07-.52-1.42s-.97-.5-1.87-.5h-2.13c-4 0-6.01-1.64-6.01-4.9v-1.38c0-1.64.67-2.83 1.98-3.6 1.34-.76 3.44-1.15 6.31-1.15 1.5 0 3.4.12 5.68.39v3.33a60.25 60.25 0 0 0-5.83-.54c-1.5 0-2.46.12-2.99.39-.56.26-.82.69-.82 1.26v1.34c0 1 .82 1.46 2.43 1.46h2.2c2.1 0 3.59.38 4.52 1.18.94.81 1.42 2 1.42 3.6v1.23c0 2.22-.78 3.72-2.31 4.52-.75.42-1.57.7-2.47.85-.9.15-1.98.23-3.25.23-1.8 0-3.92-.16-6.5-.5z" />
</svg>